<svg width="390" height="389" xmlns="http://www.w3.org/2000/svg" xmlns:xlink="http://www.w3.org/1999/xlink" xml:space="preserve" overflow="hidden"><defs><clipPath id="clip0"><rect x="2005" y="1043" width="390" height="389"/></clipPath><clipPath id="clip1"><path d="M2226.98 1056.93 2383.8 1213.75 2226.98 1370.56 2070.17 1213.75Z" fill-rule="evenodd" clip-rule="evenodd"/></clipPath><clipPath id="clip2"><path d="M2226.98 1056.93 2383.8 1213.75 2226.98 1370.56 2070.17 1213.75Z" fill-rule="evenodd" clip-rule="evenodd"/></clipPath><clipPath id="clip3"><path d="M2226.98 1056.93 2383.8 1213.75 2226.98 1370.56 2070.17 1213.75Z" fill-rule="evenodd" clip-rule="evenodd"/></clipPath></defs><g clip-path="url(#clip0)" transform="translate(-2005 -1043)"><path d="M2200 1043C2307.68 1043 2395 1130.09 2395 1237.5 2395 1344.91 2307.68 1432 2200 1432 2092.32 1432 2005 1344.91 2005 1237.5 2005 1130.09 2092.27 1043 2200 1043Z" fill="#FF9FB4" fill-rule="evenodd"/><g clip-path="url(#clip1)"><g clip-path="url(#clip2)"><g clip-path="url(#clip3)"><path d="M2252.28 1270.9C2245.82 1280.9 2239.94 1289.91 2234.63 1297.92 2232.44 1301.36 2230.2 1304.74 2227.91 1308.08 2225.62 1311.41 2223.56 1314.45 2221.74 1317.21 2219.92 1319.97 2218.36 1322.32 2217.05 1324.24 2215.75 1326.17 2214.95 1327.39 2214.63 1327.91 2212.86 1330.31 2211.02 1331.22 2209.09 1330.65 2207.16 1330.07 2205.42 1329.01 2203.86 1327.44 2203.34 1326.92 2202.76 1325.99 2202.14 1324.63 2201.51 1323.28 2201.05 1322.24 2200.73 1321.51L2183.71 1257C2171.94 1253.98 2161.32 1251.17 2151.84 1248.57 2147.78 1247.42 2143.75 1246.3 2139.74 1245.21 2135.73 1244.12 2132.06 1243.15 2128.73 1242.32 2125.4 1241.49 2122.56 1240.73 2120.22 1240.06 2117.87 1239.38 2116.34 1238.88 2115.61 1238.57 2114.05 1238.05 2112.8 1237.17 2111.86 1235.92 2110.92 1234.67 2110.32 1233.29 2110.06 1231.78 2109.8 1230.27 2109.91 1228.86 2110.38 1227.56 2110.84 1226.26 2111.65 1225.24 2112.8 1224.51 2113.32 1224.2 2114.59 1223.45 2116.62 1222.25 2118.65 1221.05 2121.05 1219.59 2123.81 1217.88 2126.57 1216.16 2129.64 1214.28 2133.02 1212.25 2136.41 1210.22 2139.87 1208.17 2143.41 1206.08 2151.43 1201.19 2160.49 1195.67 2170.59 1189.53 2169.76 1178.07 2168.97 1167.82 2168.25 1158.76 2167.93 1154.9 2167.62 1151.1 2167.31 1147.36 2167 1143.61 2166.74 1140.22 2166.53 1137.2 2166.32 1134.18 2166.14 1131.71 2165.98 1129.78 2165.82 1127.86 2165.75 1126.79 2165.75 1126.58 2165.64 1124.19 2165.85 1121.84 2166.37 1119.55 2166.89 1117.26 2167.98 1115.49 2169.65 1114.24 2171.32 1112.99 2173.04 1112.42 2174.81 1112.52 2176.58 1112.63 2178.14 1113.15 2179.49 1114.09L2232.13 1157.98 2291.95 1134.08C2294.24 1133.04 2296.56 1132.49 2298.9 1132.44 2301.24 1132.39 2303.4 1133.35 2305.38 1135.33 2306.42 1136.37 2307.1 1137.52 2307.41 1138.77 2307.72 1140.01 2307.83 1141.21 2307.72 1142.36 2307.62 1143.5 2307.44 1144.57 2307.18 1145.56 2306.92 1146.55 2306.68 1147.36 2306.47 1147.98L2282.11 1207.33 2325.84 1260.13C2327.4 1262.73 2328.24 1264.81 2328.34 1266.37 2328.45 1267.94 2327.72 1269.5 2326.16 1271.06 2324.7 1272.52 2322.98 1273.35 2321 1273.56 2319.02 1273.77 2316.58 1273.98 2313.66 1274.18Z" fill="#FFFFFF" fill-opacity="0.68"/></g></g></g><path d="M0 0 89.947 93.2723" stroke="#FFFFFF" stroke-width="27.5" stroke-linecap="round" stroke-miterlimit="8" stroke-opacity="0.45098" fill="none" fill-rule="evenodd" transform="matrix(1 0 0 -1 2105 1338.27)"/><path d="M2271 1308C2271 1299.16 2277.94 1292 2286.5 1292 2295.06 1292 2302 1299.16 2302 1308 2302 1316.84 2295.06 1324 2286.5 1324 2277.94 1324 2271 1316.84 2271 1308Z" fill="#FFFFFF" fill-rule="evenodd" fill-opacity="0.541176"/><path d="M2314 1374C2314 1359.09 2326.09 1347 2341 1347 2355.91 1347 2368 1359.09 2368 1374 2368 1388.91 2355.91 1401 2341 1401 2326.09 1401 2314 1388.91 2314 1374Z" fill="#FFFFFF" fill-rule="evenodd" fill-opacity="0.541176"/></g></svg>